<?xml version="1.0" encoding="utf-8"?>
<!-- Generator: Adobe Illustrator 22.1.0, SVG Export Plug-In . SVG Version: 6.00 Build 0)  -->
<svg version="1.1"
	 id="svg8" inkscape:version="0.92.3 (2405546, 2018-03-11)" sodipodi:docname="logo.svg" xmlns:cc="http://creativecommons.org/ns#" xmlns:dc="http://purl.org/dc/elements/1.1/" xmlns:inkscape="http://www.inkscape.org/namespaces/inkscape" xmlns:rdf="http://www.w3.org/1999/02/22-rdf-syntax-ns#" xmlns:sodipodi="http://sodipodi.sourceforge.net/DTD/sodipodi-0.dtd" xmlns:svg="http://www.w3.org/2000/svg"
	 xmlns="http://www.w3.org/2000/svg" xmlns:xlink="http://www.w3.org/1999/xlink" x="0px" y="0px" viewBox="0 0 700.7 109.9"
	 style="enable-background:new 0 0 700.7 109.9;" xml:space="preserve">
<style type="text/css">
	.st0{fill:#FFFFFF;}
</style>
<title  id="title3820">codekid logo</title>
<sodipodi:namedview  bordercolor="#666666" borderopacity="1.0" fit-margin-bottom="0" fit-margin-left="0" fit-margin-right="0" fit-margin-top="0" id="base" inkscape:current-layer="layer1" inkscape:cx="127.37839" inkscape:cy="228.02908" inkscape:document-units="mm" inkscape:pagecheckerboard="true" inkscape:pageopacity="0.0" inkscape:pageshadow="2" inkscape:window-height="1017" inkscape:window-maximized="1" inkscape:window-width="1920" inkscape:window-x="-8" inkscape:window-y="-8" inkscape:zoom="0.7" pagecolor="#ffffff" showgrid="false">
	</sodipodi:namedview>
<g id="layer1" transform="translate(-23.374653,-113.3242)" inkscape:groupmode="layer" inkscape:label="Layer 1">
	
		<path id="path3812" inkscape:connector-curvature="0" sodipodi:nodetypes="cscccccssccccccccccccsscccccccccsccscccccccccccscccccsccccccscsccccccscccccccscccsssssccsccccccccccsccsscsssscssccsccsccccccccccc" class="st0" d="
		M496.6,113.3v18.1c0,16.5-0.3,17.9-3.1,16.7c-16-6.9-33.6-0.3-41.8,15.7c-11.2,21.9-1.5,53.5,17.7,57.7c2.7,0.6,5.7,1.3,6.7,1.5
		c3.2,0.8,13.4-2.1,17.9-5.1c4.2-2.8,4.4-2.7,4.4,0.7c0,3,1.2,3.6,7.1,3.6h7.1v-54.5v-54.5h-8H496.6z M230.4,116.9v18.7v18.7
		l-5.8-3.5c-16.5-10.1-37.8,2-42.4,24.1c-3.7,17.7,2.9,36.7,14.7,42.8c8,4.1,22.2,2.9,29.6-2.3c5.6-4,5.6-4,5.6-0.3
		c0,2.9,1.1,3.7,5.4,3.7h5.4v-50.9v-50.9h-6.3L230.4,116.9z M424.8,117c-4.1,0.3-7.9,3.2-9.4,8.3c-0.9,2.9,0,5.2,3.3,8.5
		c5.2,5.2,7.7,5.5,13,1.9c5.4-3.8,6.2-9.1,2.1-14.3C431.3,118.2,428,116.8,424.8,117L424.8,117z M401.5,122.2c-1.1,0-2.3,0-3.8,0
		h-9.8l-18,21.6l-18,21.6v-21.6v-21.6h-8h-8v50v50h8h8v-15.9c0-15.8,0-15.8,6.9-23.6l6.9-7.7l7.7,13.3c4.2,7.3,10.2,17.7,13.3,23.1
		c5.6,9.7,5.7,9.8,14.9,10.4c5.1,0.3,9.3-0.1,9.3-0.9c0-0.8-7.7-14.6-17-30.7l-17-29.2l14-17.2C407.4,123.6,409,122.3,401.5,122.2
		L401.5,122.2z M65.1,122.7c-8.8,0.1-19.8,4.1-26.2,9.8c-10.6,9.6-14.5,18.5-15.4,35.5c-1.3,24.1,7,41.4,23.7,49.2
		c11,5.1,28.6,3.8,38.2-2.9c8.1-5.6,8.8-7.3,4.5-12c-2.8-3.1-3.2-3-9.2,1.6c-8.2,6.2-22.4,6.8-30.2,1.2
		c-18.3-13.3-18.2-55.5,0.2-66.8c7.7-4.8,19.7-4.8,27.6,0c5.7,3.5,6.2,3.5,9.4,0.6c1.9-1.7,3.4-3.7,3.4-4.5c0-2-14.1-9.8-20.3-11.3
		C69,122.9,67.1,122.7,65.1,122.7L65.1,122.7z M434.1,145.3l-8.5,0.5l-8.5,0.5l-0.5,35.7c-0.3,19.6-0.1,36.7,0.4,38
		c0.5,1.4,4,2.3,9,2.3h8.1v-38.5V145.3z M137.1,147.4c-19.3-0.4-35.7,17.9-33,41.5c3,25.8,27.6,39.5,48.6,27.2
		c23-13.5,21.8-53.6-2-65.3C146.2,148.6,141.6,147.5,137.1,147.4L137.1,147.4z M293,147.6c-10.6-0.3-20.2,4.8-26.4,14.2
		c-9.1,13.7-7.2,39.5,3.5,49.3c10.8,9.9,26.4,12.1,40.2,5.9c7-3.2,7.5-3.8,5.7-7.3c-1.5-2.9-3-3.5-5.9-2.5
		c-7.9,2.6-19.4,2.9-24.7,0.7c-5.1-2.1-12.1-13-12.2-19c0-1.6,6.4-2.3,23.6-2.7l23.7-0.5l-0.5-8.8c-0.9-17.4-9.7-27.7-25-29.1
		C294.5,147.7,293.8,147.6,293,147.6L293,147.6z M292.1,157.8c7.3-0.1,14.3,4.7,16.2,14.1l1.1,5.7h-18.1c-9.9,0-18.1-0.4-18.1-1
		c0-0.5,1.1-3.6,2.5-6.9C279.1,161.8,285.7,157.9,292.1,157.8z M136.6,158c11.5,0,18.8,10.4,18.8,26.8c0,15-7.5,25-18.8,25
		c-3,0-7.3-1.3-9.4-2.8c-6-4.2-9.3-12.1-9.3-22.2C117.8,168.4,125.1,158,136.6,158z M213.5,158.3c1.5-0.1,3.1,0.1,4.7,0.4
		c10.7,2.1,12.2,5,12.2,24.4c0,17.3,0,17.5-5.5,22.1c-6.4,5.4-14.9,6.1-21.1,1.7c-9.2-6.5-11.9-24.3-5.5-37.4
		C201.7,162.4,207,158.6,213.5,158.3L213.5,158.3z M482.5,160c2.1,0,4.3,0.9,8,2.7l6.1,2.9l0,17.2l0,17.2l-5.9,4
		c-6.3,4.3-10.7,4.8-16.5,2h0c-12.9-6.3-12.2-36.7,1.1-43.6C478.5,160.8,480.4,159.9,482.5,160L482.5,160z M-42.9-207.9"/>
</g>
<path class="st0" d="M649.4,4.5c-6.9,2.3-9.9,6.3-9.9,13.1c0,8.5,5.7,13.5,15.3,13.5c9.6,0,15.1-5,15.1-13.6
	C669.9,7.7,659.7,1.2,649.4,4.5z"/>
<path class="st0" d="M590.2,5.2c-1.1,0.5-3.2,2.2-4.6,3.6l-2.5,2.6l-12-3l-11.9-3.1l-0.3,6.7c-0.2,3.7,0.1,7.1,0.5,7.5
	c0.4,0.4,7.7,3.1,16.1,6.1c12.8,4.6,16.2,5.5,21.3,5.5c10.2,0,15.9-4.9,15.9-13.5c0-4.5-1.9-8-6-11.2c-2.6-1.9-4.1-2.3-8.8-2.3
	C594.8,4.2,591.3,4.6,590.2,5.2z"/>
<path class="st0" d="M548.9,69.6c0.4,10.5,2,14.6,7.2,19.3c5.8,5.1,8.3,5.7,31.8,6.1c24.7,0.5,24.7,0.5,25.5,7.6l0.6,4.1h9.3h9.4
	v-3.5c0-2.1,0.8-4.3,1.9-5.6c1.9-2.2,2.3-2.2,23.8-2.6c19.9-0.5,22.2-0.6,25.9-2.4c9.3-4.4,13.4-12.2,13.4-25.2v-7.5h-9.4H679
	l-0.6,3.8c-0.3,2.3-1.5,4.6-3.1,6c-2.6,2.3-2.8,2.3-22.4,2.9c-21.7,0.5-24.3,1.1-27.9,6.1l-1.9,2.8l-1.8-2.7
	c-3.3-5-6.2-5.8-26.6-6.1c-10.4-0.2-19.8-0.7-21.4-1.3c-3-1.1-5.6-5.3-5.6-9.3v-2.3h-9.6h-9.6L548.9,69.6z"/>
</svg>
