<?xml version="1.0" encoding="utf-8"?>
<!-- Generator: Adobe Illustrator 22.1.0, SVG Export Plug-In . SVG Version: 6.00 Build 0)  -->
<svg version="1.1" id="Laag_1" xmlns="http://www.w3.org/2000/svg" xmlns:xlink="http://www.w3.org/1999/xlink" x="0px" y="0px"
	 viewBox="0 0 291 217" style="enable-background:new 0 0 291 217;" xml:space="preserve">
<style type="text/css">
	.st0{fill:#FFFFFF;}
</style>
<g transform="translate(0.000000,217.000000) scale(0.100000,-0.100000)">
	<path class="st0" d="M1717,1997c-69-22.5-99-63-99-131.4c0-84.6,57-135,153-135s151,50.4,151,135.9
		C1922,1965.5,1820,2030.3,1717,1997z"/>
	<path class="st0" d="M1125,1990.7c-11-5.4-32-21.6-46-36l-25-26.1l-120,29.7l-119,30.6l-3-67.5c-2-36.9,1-71.1,5-74.7
		s77-31.5,161-61.2c128-45.9,162-54.9,213-54.9c102,0,159,48.6,159,135c0,45-19,80.1-60,111.6c-26,18.9-41,23.4-88,23.4
		C1171,2000.6,1136,1996.1,1125,1990.7z"/>
	<path class="st0" d="M712,1346.5c4-105.3,20-145.8,72-193.4c58-51.3,83-56.7,318-61.2c247-5.4,247-5.4,255-75.6l6-41.4h93h94v35.1
		c0,20.7,8,43.2,19,55.8c19,21.6,23,21.6,238,26.1c199,4.5,222,6.3,259,24.3c93,44.1,134,121.5,134,251.9v74.7h-94h-93l-6-37.8
		c-3-23.4-15-45.9-31-60.3c-26-23.4-28-23.4-224-28.8c-217-5.4-243-10.8-279-61.2l-19-27.9l-18,27c-33,50.4-62,57.6-266,61.2
		c-104,1.8-198,7.2-214,12.6c-30,10.8-56,53.1-56,92.7v22.5h-96h-96L712,1346.5z"/>
	<path class="st0" d="M1200,709.4V624l-20,18c-67,60.3-189,43.2-237-32.4C881,513.3,954,390,1072,390c46,0,81,11.7,108,36l20,18v-27
		c0-20.7,4-27,20-27c19,0,20,6.3,20,202.4s-1,202.4-20,202.4S1200,788.6,1200,709.4z M1150,624.9c38-24.3,51-54,47-102.6
		c-5-50.4-33-82.8-87-97.2c-48-13.5-102,7.2-130,47.7C909,577.2,1042,696.9,1150,624.9z"/>
	<path class="st0" d="M2810,727.4v-68.4l-32,15.3c-40,18.9-119,12.6-156-11.7c-15-9-37-35.1-50-57.6c-59-99.9,18-215,143-215
		c38,0,60,5.4,79,18.9l26,18v-18c0-16.2,6-18.9,45-18.9h45v202.4v202.4h-50h-50V727.4z M2764,611.4c46-17.1,63-62.1,42-107.1
		c-18-39.6-48-54.9-92-47.7c-41,7.2-64,35.1-64,78.3c0,47.7,9,62.1,44,76.5C2732,625.8,2725,625.8,2764,611.4z"/>
	<path class="st0" d="M158,767.9C0,725.6-48,538.5,72,437.7c69-58.5,230-63.9,285-9.9c28,27.9,2,38.7-38,17.1
		c-41-22.5-136-26.1-177-6.3c-62,28.8-95,80.1-94,147.6c1,121.5,149,194.3,269,133.2c33-17.1,44-19.8,52-10.8c8,8.1,6,16.2-8,27
		C318,770.6,223,785.9,158,767.9z"/>
	<path class="st0" d="M1840,579V390h50h50v52.2c0,45.9,4,55.8,28,76.5l28,24.3l69-76.5l68-76.5h54c63,0,63-4.5-17,85.5
		c-31,35.1-69,77.4-84,96.3l-27,32.4l83,80.1l83,79.2l-50,2.7l-50,3.6l-92-89.1l-93-88.2v88.2v87.3h-50h-50V579z"/>
	<path class="st0" d="M2340,538.5V390h45h45v148.5V687h-45h-45V538.5z"/>
	<path class="st0" d="M559,658.2C422,587.1,480,390,637,390c95,0,154,49.5,161,134.1c2,37.8-2,58.5-16,81.9
		C742,672.6,634,697.8,559,658.2z M725,614.1c27-23.4,30-32.4,30-79.2c0-62.1-24-93.6-85-109.8c-103-27.9-188,83.7-130,170.1
		C581,655.5,668,664.5,725,614.1z"/>
	<path class="st0" d="M1470,660.9c-53-24.3-82-75.6-77-134.1c6-81,72-136.8,161-136.8c53,0,121,27.9,114,45.9
		c-4,11.7-14,10.8-64-6.3c-72-24.3-152,9-169,71.1l-7,24.3h136c136,0,136,0,136,20.7c0,36-43,97.2-80,115.2
		C1576,682.5,1514,682.5,1470,660.9z M1594,637.5c30-12.6,66-54,66-75.6c0-6.3-38-9.9-115-9.9c-74,0-115,3.6-115,9
		c0,23.4,32,61.2,62,74.7C1533,654.6,1554,654.6,1594,637.5z"/>
</g>
</svg>
