<?xml version="1.0" encoding="UTF-8" standalone="no"?>
<!-- Created with Inkscape (http://www.inkscape.org/) -->

<svg
   xmlns:dc="http://purl.org/dc/elements/1.1/"
   xmlns:cc="http://creativecommons.org/ns#"
   xmlns:rdf="http://www.w3.org/1999/02/22-rdf-syntax-ns#"
   xmlns:svg="http://www.w3.org/2000/svg"
   xmlns="http://www.w3.org/2000/svg"
   xmlns:sodipodi="http://sodipodi.sourceforge.net/DTD/sodipodi-0.dtd"
   xmlns:inkscape="http://www.inkscape.org/namespaces/inkscape"
   width="172.62482mm"
   height="38.761757mm"
   viewBox="0 0 172.62482 38.761757"
   version="1.1"
   id="svg8"
   inkscape:version="0.92.3 (2405546, 2018-03-11)"
   sodipodi:docname="logo.svg">
  <title
     id="title3820">codekid logo</title>
  <defs
     id="defs2" />
  <sodipodi:namedview
     id="base"
     pagecolor="#ffffff"
     bordercolor="#666666"
     borderopacity="1.0"
     inkscape:pageopacity="0.0"
     inkscape:pageshadow="2"
     inkscape:zoom="0.7"
     inkscape:cx="127.37839"
     inkscape:cy="228.02908"
     inkscape:document-units="mm"
     inkscape:current-layer="layer1"
     showgrid="false"
     inkscape:pagecheckerboard="true"
     fit-margin-top="0"
     fit-margin-left="0"
     fit-margin-right="0"
     fit-margin-bottom="0"
     inkscape:window-width="1920"
     inkscape:window-height="1017"
     inkscape:window-x="-8"
     inkscape:window-y="-8"
     inkscape:window-maximized="1" />
  <metadata
     id="metadata5">
    <rdf:RDF>
      <cc:Work
         rdf:about="">
        <dc:format>image/svg+xml</dc:format>
        <dc:type
           rdf:resource="http://purl.org/dc/dcmitype/StillImage" />
        <dc:title>codekid logo</dc:title>
      </cc:Work>
    </rdf:RDF>
  </metadata>
  <g
     inkscape:label="Layer 1"
     inkscape:groupmode="layer"
     id="layer1"
     transform="translate(-23.374653,-113.3242)">
    <path
       style="opacity:1;fill:#ffffff;fill-opacity:1;stroke:#ffff7a;stroke-width:0;stroke-miterlimit:4;stroke-dasharray:none;stroke-opacity:0.60784314"
       d="m 190.3266,113.3242 v 6.36967 c 0,5.82942 -0.0936,6.32997 -1.10306,5.89201 -5.6335,-2.44454 -11.85408,-0.10336 -14.73618,5.54607 -3.94881,7.74031 -0.53855,18.87893 6.23795,20.37211 0.94699,0.2087 2.00594,0.44941 2.35262,0.53553 1.11937,0.27806 4.71148,-0.74189 6.31673,-1.7937 1.48447,-0.97265 1.56226,-0.95984 1.56226,0.25237 0,1.06749 0.41062,1.27542 2.52128,1.27542 h 2.52127 V 132.54894 113.3242 h -2.83643 z m -93.917566,1.2594 v 6.60974 6.60851 l -2.04854,-1.24833 c -5.82713,-3.55286 -13.35178,0.71819 -14.96639,8.49576 -1.29436,6.23489 1.02295,12.95966 5.20013,15.09196 2.80488,1.43177 7.8484,1.03698 10.45444,-0.81867 1.97588,-1.40695 1.99068,-1.40695 1.99068,-0.11326 0,1.02818 0.39946,1.30249 1.89095,1.30249 h 1.890956 v -17.9641 -17.9641 h -2.206106 z m 68.580456,0.0529 c -1.43548,0.0989 -2.78242,1.12799 -3.3178,2.93123 -0.30486,1.02676 0.0119,1.837 1.16831,2.99402 1.82473,1.82473 2.72728,1.95475 4.57597,0.65986 1.91448,-1.34095 2.1896,-3.21375 0.74235,-5.05363 -0.88266,-1.12211 -2.05235,-1.60839 -3.16883,-1.53148 z m -8.22124,1.83187 c -0.38017,-10e-4 -0.82586,0.007 -1.33327,0.007 h -3.45075 l -6.35736,7.62169 -6.35613,7.62292 v -7.62295 -7.62169 h -2.83644 -2.83643 v 17.64894 17.64894 h 2.83643 2.83644 v -5.59285 c 0,-5.59119 1.9e-4,-5.59132 2.42032,-8.3185 l 2.42034,-2.7281 2.71455,4.69539 c 1.49274,2.58221 3.61088,6.25542 4.7077,8.16214 1.97681,3.43648 2.02237,3.46748 5.26538,3.65635 1.79936,0.10482 3.27225,-0.0411 3.27225,-0.32501 0,-0.28402 -2.70418,-5.15885 -6.00896,-10.83238 l -6.00897,-10.31533 4.94407,-6.0619 c 5.83545,-7.15586 6.43206,-7.63668 3.77083,-7.64508 z m -118.679756,0.17727 c -3.102923,0.05 -6.989232,1.44294 -9.23073,3.46799 -3.747821,3.38595 -5.105397,6.51045 -5.435274,12.51775 -0.466229,8.49035 2.486609,14.61658 8.372657,17.36948 3.877043,1.81327 10.073983,1.34986 13.476768,-1.00827 2.870398,-1.98918 3.0883,-2.57169 1.581957,-4.23619 -0.97477,-1.07709 -1.120532,-1.05071 -3.259936,0.58108 -2.890657,2.20483 -7.911957,2.40053 -10.644025,0.41488 -6.463509,-4.69763 -6.416563,-19.56903 0.07387,-23.58034 2.728349,-1.68622 6.943446,-1.68049 9.720708,0.0123 2.003955,1.22174 2.183943,1.23252 3.309176,0.21421 0.654473,-0.5923 1.190465,-1.30487 1.190465,-1.58319 0,-0.70569 -4.979988,-3.47264 -7.162494,-3.98012 -0.602699,-0.14014 -1.277084,-0.20115 -1.993139,-0.18959 z m 130.176936,7.95409 -2.99402,0.19205 -2.99402,0.19205 -0.17112,12.58915 c -0.0943,6.92373 -0.0322,12.95118 0.13788,13.39429 0.18797,0.49001 1.42801,0.80513 3.16514,0.80513 h 2.85614 v -13.5851 z m -104.763496,0.7522 c -6.82008,-0.13192 -12.607432,6.30599 -11.625206,14.62661 1.074922,9.10585 9.729855,13.94845 17.154039,9.59759 8.121357,-4.75943 7.682887,-18.92578 -0.712803,-23.02512 -1.61329,-0.78772 -3.242167,-1.16864 -4.81603,-1.19908 z m 55.006426,0.0591 c -3.73084,-0.10482 -7.11998,1.7081 -9.30952,5.0167 -3.20228,4.83897 -2.54863,13.92652 1.2508,17.39164 3.81773,3.48182 9.31422,4.28177 14.19695,2.06577 2.45985,-1.11639 2.6438,-1.35335 1.99437,-2.56682 -0.53864,-1.00648 -1.05224,-1.22485 -2.07931,-0.88516 -2.7777,0.91864 -6.82897,1.03634 -8.7186,0.2536 -1.81335,-0.75109 -4.25423,-4.56877 -4.29282,-6.71437 -0.01,-0.55923 2.26946,-0.81767 8.33819,-0.94548 l 8.35173,-0.17481 -0.16497,-3.11959 c -0.32501,-6.12992 -3.43926,-9.75796 -8.81708,-10.2747 -0.25151,-0.0241 -0.50101,-0.0398 -0.74974,-0.0468 z m -0.33485,3.62064 c 2.56743,-0.0349 5.06205,1.65852 5.72334,4.96499 l 0.40381,2.019 h -6.38199 c -3.51009,0 -6.38198,-0.15173 -6.38198,-0.33609 0,-0.18439 0.3956,-1.28188 0.879,-2.4388 1.17073,-2.80196 3.49244,-4.17834 5.75782,-4.2091 z m -54.856241,0.0505 c 4.052657,0 6.618353,3.66957 6.618353,9.46586 0,5.2903 -2.645646,8.8134 -6.618353,8.8134 -1.059087,0 -2.55764,-0.44383 -3.330103,-0.98488 -2.120041,-1.48494 -3.288249,-4.26542 -3.288249,-7.82852 0,-5.79629 2.565689,-9.46586 6.618352,-9.46586 z m 27.145585,0.1071 c 0.52982,-0.0221 1.08213,0.0224 1.65336,0.13666 3.7834,0.75669 4.29282,1.77856 4.29282,8.62133 0,6.09302 -0.0175,6.16489 -1.93897,7.78174 -2.25121,1.89427 -5.25211,2.13829 -7.44195,0.60447 -3.25408,-2.27926 -4.1807,-8.57902 -1.94144,-13.2047 1.20294,-2.48494 3.0803,-3.84382 5.37618,-3.9395 z m 94.885206,0.58846 c 0.7356,0.0117 1.51643,0.3264 2.83397,0.95164 l 2.14457,1.01688 -0.005,6.07421 -0.005,6.07421 -2.08301,1.41822 c -2.23212,1.51957 -3.75988,1.70445 -5.81691,0.70542 h -0.001 c -4.56739,-2.22048 -4.3073,-12.95361 0.37301,-15.37389 1.13413,-0.58647 1.82385,-0.87831 2.55945,-0.86669 z"
       id="rect3816"
       inkscape:connector-curvature="0"
       sodipodi:nodetypes="cscccccssccccccccccccsscccccccccsccscccccccccccscccccsccccccscsccccccscccccccscccsssssccsccccccccccsccsscsssscssccsccsccccccccccc" />
    <path
       style="fill:#000000;stroke-width:0.26458332"
       d=""
       id="path3812"
       inkscape:connector-curvature="0" />
  </g>
</svg>
