<?xml version="1.0" encoding="utf-8"?>
<!-- Generator: Adobe Illustrator 22.1.0, SVG Export Plug-In . SVG Version: 6.00 Build 0)  -->
<svg version="1.1" id="Laag_1" xmlns="http://www.w3.org/2000/svg" xmlns:xlink="http://www.w3.org/1999/xlink" x="0px" y="0px"
	 viewBox="0 0 1000 1000" style="enable-background:new 0 0 1000 1000;" xml:space="preserve">
<g>
	<g>
		<defs>
			<path id="SVGID_1_" d="M226.3,488.7c-5.6,11.5-13.3,21-22.9,28.4c-9.6,7.4-20.8,12.9-33.4,16.5c-12.6,3.6-26.1,5.4-40.4,5.4H96.2
				v91.1H35.6V361.3h92.3c14.8,0,28.7,1.4,41.6,4.3c12.9,2.9,24.2,7.7,33.8,14.4c9.6,6.7,17.2,15.7,22.9,26.8
				c5.6,11.1,8.5,24.8,8.5,41C234.7,463.5,231.9,477.1,226.3,488.7L226.3,488.7z M162.2,418.2c-8.8-5.8-21.4-8.7-37.9-8.7h-28v81.2
				h29.7c33,0,49.5-14.3,49.5-42.9C175.3,433.8,170.9,423.9,162.2,418.2L162.2,418.2z M753.5,577.3c-3.4,11.5-8.7,21.6-15.7,30.1
				c-7,8.5-15.9,15.3-26.8,20.2c-10.9,4.9-23.7,7.4-38.5,7.4c-20.6,0-37.9-4-51.7-12c-13.9-8-25.5-20.2-34.8-36.7l41.2-30.5
				c4.9,9.1,10.7,15.8,17.3,20.2c6.6,4.4,13.3,6.6,20.2,6.6c11,0,19.3-3.4,24.9-10.1c5.6-6.7,8.5-19,8.5-36.9V361.3h60.6v179.3
				C758.7,553.5,757,565.8,753.5,577.3L753.5,577.3z M939.2,414.3c-8.8-3.7-18.6-5.6-29.3-5.6c-10.4,0-18.8,2.1-24.9,6.4
				c-6.2,4.3-9.3,10.2-9.3,17.9c0,4.1,1,7.6,3.1,10.5c2.1,2.9,4.9,5.5,8.7,7.8c3.7,2.3,8,4.5,13,6.6s10.3,4.3,16.1,6.8l34.6,14
				c16.5,6.6,29.5,15.7,39,27.2c9.5,11.5,14.2,26.8,14.2,45.8c0,11.3-2.3,21.9-6.8,31.9c-4.5,10-11.1,18.8-19.8,26.4
				c-8.7,7.6-19.3,13.6-32,18.1c-12.6,4.5-26.9,6.8-42.9,6.8c-17.6,0-35.1-3.2-52.6-9.7c-17.5-6.5-33-16.1-46.8-29.1l34.6-41.6
				c9.6,8.2,20.3,15,32,20.2c11.7,5.2,23.1,7.8,34.4,7.8c12.6,0,22.1-2.3,28.2-7c6.2-4.7,9.3-11,9.3-19c0-4.1-0.9-7.7-2.7-10.7
				c-1.8-3-4.4-5.7-7.8-8c-3.4-2.3-7.6-4.5-12.4-6.6c-4.8-2.1-10.1-4.3-15.9-6.8l-35-14.8c-6.9-2.7-13.5-6.3-20-10.7
				c-6.5-4.4-12.2-9.5-17.3-15.5c-5.1-5.9-9.1-12.8-12.2-20.6c-3-7.8-4.5-16.7-4.5-26.6c0-11,2.3-21.4,7-31.1
				c4.7-9.8,11.3-18.3,19.8-25.6c8.5-7.3,18.6-13,30.3-17.1c11.7-4.1,24.5-6.2,38.5-6.2c15.7,0,31.1,3,46.4,9.1
				c15.3,6,28.7,14.8,40.2,26.4l-30.9,38.3C956.8,423.3,948,418,939.2,414.3L939.2,414.3z"/>
		</defs>
		<use xlink:href="#SVGID_1_"  style="overflow:visible;fill:#FFFFFF;"/>
		<clipPath id="SVGID_2_">
			<use xlink:href="#SVGID_1_"  style="overflow:visible;"/>
		</clipPath>
		<g style="clip-path:url(#SVGID_2_);">
			<image style="overflow:visible;" width="1920" height="1080" xlink:href="30E774DA.jpg"  transform="matrix(1 0 0 1 -460 -40)">
			</image>
		</g>
		<use xlink:href="#SVGID_1_"  style="overflow:visible;fill:none;stroke:#FFFFFF;stroke-miterlimit:10;"/>
	</g>
	<g>
		<defs>
			<path id="SVGID_3_" d="M378.8,541c11.7-4.1,21.9-10.1,30.7-17.9c8.8-7.8,15.8-17.4,21-28.7c5.2-11.3,7.8-24.2,7.8-38.8
				c0-14-2.2-26.1-6.6-36.3c-4.4-10.2-10.4-18.6-18.1-25.1c-7.7-6.6-16.6-11.5-26.6-14.8c-10-3.3-20.7-4.9-32-4.9
				c-5.5,0-10.5,0.5-15,1.4c-4.5,1-9.3,2.5-14.2,4.7l4.5-49.1h96.1v-51.1H278l-7.4,132.3l27.2,17.3c3.8-2.5,7.3-4.5,10.5-6.2
				c3.2-1.6,6.2-3,9.1-4.1c2.9-1.1,5.8-1.9,8.9-2.3c3-0.4,6.5-0.6,10.3-0.6c12.4,0,22.3,3.4,29.9,10.3c7.6,6.9,11.3,16.9,11.3,30.1
				c0,13.5-4,23.6-12,30.5c-8,6.9-18.7,10.3-32.2,10.3c-11.3,0-21.5-2.5-30.7-7.6c-9.2-5.1-17.8-11.2-25.8-18.3l-27.2,38.3
				c10.4,10.5,23.1,19.2,37.9,26.2c14.8,7,33,10.5,54.4,10.5C354.9,547.1,367.1,545.1,378.8,541L378.8,541z"/>
		</defs>
		<use xlink:href="#SVGID_3_"  style="overflow:visible;fill:#FFFFFF;"/>
		<clipPath id="SVGID_4_">
			<use xlink:href="#SVGID_3_"  style="overflow:visible;"/>
		</clipPath>
		<g style="clip-path:url(#SVGID_4_);">
			<image style="overflow:visible;" width="1920" height="1080" xlink:href="30E774DE.jpg"  transform="matrix(1 0 0 1 -460 -40)">
			</image>
		</g>
		<use xlink:href="#SVGID_3_"  style="overflow:visible;fill:none;stroke:#FFFFFF;stroke-miterlimit:10;"/>
	</g>
	<g>
		<defs>
			<polygon id="SVGID_5_" points="501.9,611.6 534.9,648.3 560,630.2 535.7,587.3 580.2,567.1 570.3,537.4 522.9,547.7 517.5,498.7 
				485.8,498.7 480.4,547.3 432.6,537.4 423.1,567.1 467.7,587.3 443.3,630.2 468.5,648.3 501.9,611.6 			"/>
		</defs>
		<use xlink:href="#SVGID_5_"  style="overflow:visible;fill:#FFFFFF;"/>
		<clipPath id="SVGID_6_">
			<use xlink:href="#SVGID_5_"  style="overflow:visible;"/>
		</clipPath>
		<g style="clip-path:url(#SVGID_6_);">
			<image style="overflow:visible;" width="1920" height="1080" xlink:href="30E774D9.jpg"  transform="matrix(1 0 0 1 -460 -40)">
			</image>
		</g>
		<use xlink:href="#SVGID_5_"  style="overflow:visible;fill:none;stroke:#FFFFFF;stroke-miterlimit:10;"/>
	</g>
</g>
</svg>
